<?xml version="1.0" standalone="no"?><!DOCTYPE svg PUBLIC "-//W3C//DTD SVG 1.1//EN" "http://www.w3.org/Graphics/SVG/1.1/DTD/svg11.dtd"><svg t="1547108317778" class="icon" style="" viewBox="0 0 1024 1024" version="1.1" xmlns="http://www.w3.org/2000/svg" p-id="2817" xmlns:xlink="http://www.w3.org/1999/xlink" width="128" height="128"><defs><style type="text/css"></style></defs><path d="M558 914.1H178.9c-31.7 0-57.4-25.7-57.4-57.4V167.4c0-31.7 25.7-57.4 57.4-57.4H782c31.7 0 57.4 25.7 57.4 57.4V512c0 15.9 12.9 28.7 28.7 28.7 15.9 0 28.7-12.9 28.7-28.7V167.4c0-63.4-51.4-114.9-114.9-114.9h-603C115.4 52.5 64 103.9 64 167.4v689.2c0 63.4 51.4 114.9 114.9 114.9H558c15.9 0 28.7-12.9 28.7-28.7 0-15.9-12.9-28.7-28.7-28.7zM262.2 603.9c-14.3 0-25.8 11.6-25.8 25.8 0 14.3 11.6 25.8 25.8 25.8h247c14.3 0 25.8-11.6 25.8-25.8 0-14.3-11.6-25.8-25.8-25.8h-247z m422.1-132.1c0-7.6-3-14.9-8.4-20.3s-12.7-8.4-20.3-8.4H265c-15.9 0-28.7 12.9-28.7 28.7 0 15.9 12.9 28.7 28.7 28.7h390.6c7.6 0 14.9-3 20.3-8.4s8.4-12.7 8.4-20.3zM718.8 311c0-7.6-3-14.9-8.4-20.3s-12.7-8.4-20.3-8.4H265c-15.9 0-28.7 12.9-28.7 28.7s12.9 28.7 28.7 28.7h425c7.6 0 14.9-3 20.3-8.4s8.5-12.7 8.5-20.3zM759 569.4c-111 0-201 90-201 201s90 201 201 201 201-90 201-201-90-201-201-201z m0 356.1c-85.6 0-155.1-69.4-155.1-155.1s69.4-155 155.1-155 155.1 69.4 155.1 155.1-69.5 155-155.1 155z m89-241.2c-6 0-11.8 2.2-16.4 6l-0.3-0.3-108.6 108.6-34.4-34.4c-3.8-10-13.4-16.7-24.1-16.7-6.9 0-13.4 2.7-18.3 7.6-4.8 4.8-7.6 11.4-7.6 18.3 0 9.8 5.5 18.2 13.6 22.6l-3 3 43.2 43.2c4.7 12.2 16.4 20.2 29.4 20.2 11.8 0 22.6-6.6 28-17.1l118.4-118.4-0.3-0.3c3.9-4.6 6-10.4 6-16.4 0-6.9-2.7-13.4-7.6-18.3-4.6-4.9-11.1-7.6-18-7.6z m0 0" p-id="2818" fill="#a79175"></path></svg>